<mxfile host="app.diagrams.net" modified="2021-03-19T20:46:20.019Z" agent="5.0 (Windows NT 10.0; Win64; x64) AppleWebKit/537.36 (KHTML, like Gecko) Chrome/89.0.4389.90 Safari/537.36" etag="p7kqX2f25kagOFITEeQK" version="14.4.9" type="github" pages="3">
  <diagram id="LINnmihD1HDYcQzkTkvL" name="Context-Diagram">
    <mxGraphModel dx="1038" dy="580" grid="1" gridSize="10" guides="1" tooltips="1" connect="1" arrows="1" fold="1" page="1" pageScale="1" pageWidth="827" pageHeight="1169" math="0" shadow="0">
      <root>
        <mxCell id="0" />
        <mxCell id="1" parent="0" />
        <mxCell id="7fiKnrMGYGweo_oKRSSX-1" value="dsadsadas" style="shape=card;whiteSpace=wrap;html=1;" vertex="1" parent="1">
          <mxGeometry x="360" y="220" width="80" height="100" as="geometry" />
        </mxCell>
      </root>
    </mxGraphModel>
  </diagram>
  <diagram id="BCpwLAcKWOmXBuxZ1syT" name="Container-Diagram">
    <mxGraphModel dx="1038" dy="580" grid="1" gridSize="10" guides="1" tooltips="1" connect="1" arrows="1" fold="1" page="1" pageScale="1" pageWidth="827" pageHeight="1169" math="0" shadow="0">
      <root>
        <mxCell id="wOS5Aw5rxeHMLlzVHDFe-0" />
        <mxCell id="wOS5Aw5rxeHMLlzVHDFe-1" parent="wOS5Aw5rxeHMLlzVHDFe-0" />
      </root>
    </mxGraphModel>
  </diagram>
  <diagram id="bjKANISwPoHKCwliM6SM" name="Component-Diagram">
    <mxGraphModel dx="1038" dy="580" grid="1" gridSize="10" guides="1" tooltips="1" connect="1" arrows="1" fold="1" page="1" pageScale="1" pageWidth="827" pageHeight="1169" math="0" shadow="0">
      <root>
        <mxCell id="QX4rX3mfWf0FfhNPfQnd-0" />
        <mxCell id="QX4rX3mfWf0FfhNPfQnd-1" parent="QX4rX3mfWf0FfhNPfQnd-0" />
      </root>
    </mxGraphModel>
  </diagram>
</mxfile>
